/vscmnt/brussel_pixiu_data/_data_brussel/112/vsc11236/PredSimResults/SUBJ07opt3D/weighted-LRposFixed/trackIG/worker_02.mot
version=1
nRows=6
nColumns=50
inDegrees=yes
endheader
                time	         pelvis_tilt	         pelvis_list	     pelvis_rotation	           pelvis_tx	           pelvis_ty	           pelvis_tz	       hip_flexion_r	     hip_adduction_r	      hip_rotation_r	        knee_angle_r	       ankle_angle_r	         mtp_angle_r	       hip_flexion_l	     hip_adduction_l	      hip_rotation_l	        knee_angle_l	       ankle_angle_l	         mtp_angle_l	    lumbar_extension	      lumbar_bending	     lumbar_rotation	 ercspn_r/activation	 intobl_r/activation	 extobl_r/activation	    abd_r/activation	    add_r/activation	hamstrings_r/activation	bifemsh_r/activation	glut_max_r/activation	iliopsoas_r/activation	rect_fem_r/activation	  vasti_r/activation	gastroc_r/activation	 soleus_r/activation	tib_ant_r/activation	 ercspn_l/activation	 intobl_l/activation	 extobl_l/activation	    abd_l/activation	    add_l/activation	hamstrings_l/activation	bifemsh_l/activation	glut_max_l/activation	iliopsoas_l/activation	rect_fem_l/activation	  vasti_l/activation	gastroc_l/activation	 soleus_l/activation	tib_ant_l/activation	
          1.60509252	         -4.52570653	          0.44462581	         -9.13231556	          2.07056936	          0.84735324	          0.01300073	        -14.32582230	         -0.37085327	          4.79347160	         -9.28241798	          7.52019294	         29.58182141	         31.28055319	         -2.53559427	         -5.75072403	         -7.60189544	          3.08409643	          0.27609669	        -12.23165102	          1.07093505	          1.77226959	          0.10904335	          0.00999999	          0.00999999	          0.03082020	          0.04558971	          0.01497403	          0.17028136	          0.01927913	          0.25560188	          0.00999999	          0.00999999	          0.17443282	          0.31588927	          0.01739791	          0.13656631	          0.14267522	          0.00999999	          0.01478853	          0.15521720	          0.09138521	          0.13003839	          0.07987694	          0.04833711	          0.00999999	          0.00999999	          0.00999999	          0.00999999	          0.43710963	
          1.61579314	         -4.51236464	          0.38333187	         -9.17562066	          2.08697861	          0.84558683	          0.01255903	        -14.88408431	         -0.45696192	          4.48895132	        -10.26374964	          6.52251663	         31.16210524	         31.26068070	         -2.31568330	         -5.53567682	         -9.37251234	          2.65923691	          0.26977029	        -12.08389820	          0.75063767	          1.96661600	          0.13007164	          0.00999999	          0.00999999	          0.02615553	          0.08326280	          0.01538443	          0.14450909	          0.01636121	          0.41191834	          0.01000000	          0.00999999	          0.14803222	          0.29542122	          0.01476472	          0.11589685	          0.12108117	          0.00999999	          0.01255027	          0.19096471	          0.07755396	          0.11035694	          0.15384694	          0.04102123	          0.00999999	          0.00999999	          0.01388492	          0.01388484	          0.45121276	
          1.62649376	         -4.49183951	          0.31960158	         -9.17172661	          2.10357354	          0.84395588	          0.01210023	        -15.24415650	         -0.51565558	          4.14584947	        -11.64268335	          5.46557375	         32.67997486	         31.08936421	         -2.16128749	         -5.16124964	        -11.10075322	          2.27284755	          0.25243626	        -11.92914134	          0.42108063	          2.14923886	          0.15622218	          0.00999999	          0.00999999	          0.02219686	          0.07944930	          0.01305601	          0.12721983	          0.01388492	          0.34957406	          0.00999999	          0.00999999	          0.12562738	          0.27270329	          0.01253006	          0.12757339	          0.10554223	          0.00999999	          0.07769767	          0.18460435	          0.07085393	          0.11459830	          0.17650084	          0.03481262	          0.00999999	          0.00999999	          0.01178343	          0.01178335	          0.53862316	
          1.63719438	         -4.46781036	          0.24065417	         -9.11645181	          2.12016652	          0.84261361	          0.01155111	        -15.33900939	         -0.53586440	          3.76919358	        -13.49670131	          4.30069119	         34.08615187	         30.81684081	         -2.02107482	         -4.83663626	        -12.63873037	          1.82605316	          0.23470584	        -11.78805545	          0.10801257	          2.31543823	          0.18344115	          0.00999999	          0.00999999	          0.01883734	          0.07464448	          0.01489656	          0.10796500	          0.01178342	          0.29666564	          0.00999999	          0.00999999	          0.10661353	          0.24077599	          0.01063362	          0.15151554	          0.08956830	          0.00999999	          0.13485334	          0.19042503	          0.06195220	          0.09725372	          0.20227648	          0.02954369	          0.00999999	          0.00999999	          0.00999999	          0.00999999	          0.58409229	
          1.64789499	         -4.44106526	          0.15220574	         -9.01465047	          2.13656832	          0.84171058	          0.01091990	        -15.11946175	         -0.52488415	          3.36530449	        -15.87359490	          3.01928526	         35.22693242	         30.55258770	         -1.88748839	         -4.57260890	        -14.20202941	          1.55264694	          0.21083161	        -11.67628062	         -0.19636146	          2.46196938	          0.22772508	          0.00999999	          0.00999999	          0.01598629	          0.07775752	          0.01608693	          0.09162769	          0.00999999	          0.25176497	          0.00999999	          0.00999999	          0.09047746	          0.20433428	          0.00999999	          0.15859965	          0.07601204	          0.00999999	          0.18518526	          0.20023559	          0.05257566	          0.08253426	          0.23031217	          0.02507222	          0.00999999	          0.01742994	          0.00999999	          0.00999999	          0.58247358	
          1.65859561	         -4.41287108	          0.06348462	         -8.86913889	          2.15260384	          0.84141333	          0.01021919	        -14.53258408	         -0.49285414	          2.93991711	        -18.82673507	          1.62852037	         35.86805282	         30.36366367	         -1.75777352	         -4.36442523	        -15.90867449	          1.61854877	          0.18688671	        -11.60592531	         -0.50126426	          2.58613206	          0.26278617	          0.00999999	          0.00999999	          0.01356675	          0.10986135	          0.01692731	          0.07775977	          0.00999999	          0.21366006	          0.00999999	          0.00999999	          0.07678359	          0.17340806	          0.00999999	          0.17096047	          0.06450753	          0.00999999	          0.21089251	          0.22089912	          0.04739631	          0.07004261	          0.24338140	          0.02127751	          0.00999999	          0.05348126	          0.00999999	          0.00999999	          0.56031509	
